<svg id="Слой_1" data-name="Слой 1" xmlns="http://www.w3.org/2000/svg" viewBox="0 0 460.32 186.81"><defs><style>.cls-1{fill:#fdfdfd;}</style></defs><title>logo-white-51</title><path class="cls-1" d="M924.79,929.72,819.37,1035.13c9.94,11.3,22,18.14,36.63,19.74,21.3,2.33,38.88-5,52.52-21.62,1.27-1.54,2.62-3,4-4.43q60.94-61,121.87-122a10.91,10.91,0,0,1,8.66-3.65c14.28.22,28.56.09,43.77.09-1.29,1.56-2,2.55-2.81,3.38-53.35,53.38-106.45,107-160.22,160-18.53,18.26-42.22,25.14-67.94,23-42.75-3.64-75.21-33.51-83.43-75.7-9.64-49.52,26.31-100,76.23-107C877.45,902.88,906.66,911.55,924.79,929.72Zm-60.6,11.68c-33.25-.74-62.91,29.24-57.64,57.55Z" transform="translate(-770.89 -903.17)"/><path class="cls-1" d="M916.4,1089.59c2.93-2.56,4.9-4.1,6.66-5.86q75.13-75.07,150.28-150.16c25.84-25.66,57.05-34.06,91.83-23.83S1222,944,1229.24,979.58c11.53,56.61-29.25,103.9-78.78,109.61-50.86,5.85-95.87-29-102.78-80.47-1.59,1.52-2.86,2.68-4.08,3.89q-37.11,37.11-74.32,74.13a11.63,11.63,0,0,1-7.21,3.06c-13.33.29-26.66.15-40,.13C920.69,1089.93,919.31,1089.77,916.4,1089.59Zm222.94-34.29a57.55,57.55,0,0,0,57.42-57.62c-.09-31.6-26.25-57.62-57.74-57.46a57.54,57.54,0,0,0,.32,115.08Z" transform="translate(-770.89 -903.17)"/></svg>